<svg xmlns="http://www.w3.org/2000/svg" width="128" height="128" viewBox="0 0 128 128">
  <path fill="#5D8009" fill-rule="evenodd" d="M64,0 C99.346224,0 128,28.653776 128,64 C128,99.346224 99.346224,128 64,128 C28.653776,128 0,99.346224 0,64 C0,28.653776 28.653776,0 64,0 Z M64,3 C30.3106303,3 3,30.3106303 3,64 C3,97.6893697 30.3106303,125 64,125 C97.6893697,125 125,97.6893697 125,64 C125,30.3106303 97.6893697,3 64,3 Z M97.3282059,76.8227019 C97.9023735,76.8227019 98.367755,77.2988482 98.367755,77.886297 L98.367755,77.886297 L98.367755,91.0986843 C97.6596587,91.2355427 96.9661877,91.4001427 96.2886567,91.5902986 C91.3037178,92.9913322 87.2056659,95.8085311 85.0363506,99.457641 C86.4453127,99.1328124 87.9034094,98.9693893 89.3937147,98.9693893 C94.1161467,98.9693893 98.3411877,100.625403 101.121698,103.215759 C91.4452787,112.379999 78.3789501,118 64,118 C47.8510704,118 33.3578065,110.911252 23.462144,99.6756932 C23.2618438,99.3407715 23.4405729,99.1576031 23.9914742,99.0518308 L23.9914742,99.0518308 L24.0022934,99.0476675 C24.5868343,98.995525 25.1775508,98.9693893 25.7733396,98.9693893 C32.1818659,98.9693893 37.6732687,102.017936 39.8833377,106.3125 C42.0934067,102.017936 47.5846452,98.9693893 53.9930072,98.9693893 C55.4831481,98.9693893 56.9407518,99.1328124 58.3500426,99.457641 C56.1807274,95.8085311 52.0828397,92.9913322 47.0977365,91.5902986 C46.4203698,91.4001427 45.7264059,91.2355427 45.0188025,91.0986843 L45.0188025,91.0986843 L45.0188025,77.886297 C45.0188025,77.2988482 45.4840197,76.8227019 46.0583517,76.8227019 C46.6325194,76.8227019 47.0977365,77.2988482 47.0977365,77.886297 L47.0977365,77.886297 L47.0977365,89.3992186 C51.3060536,90.4957674 54.9908166,92.5296451 57.655257,95.2086406 C62.1462211,95.826353 66.925255,96.2434854 71.6934431,96.2434854 C76.4627815,96.2434854 81.2418154,95.8258486 85.7331082,95.2074636 C88.3972199,92.5284682 92.0813256,90.4957674 96.2886567,89.3992186 L96.2886567,89.3992186 L96.2886567,77.886297 C96.2886567,77.2988482 96.7540382,76.8227019 97.3282059,76.8227019 Z M64,10 C73.9976752,10 83.3607749,12.7169401 91.3912293,17.4527503 C91.5420933,17.5616323 91.709682,17.6744753 91.8817232,17.7894797 L91.8817232,17.7894797 L92.0677124,17.9136854 L92.0677124,17.9136854 L92.2499506,18.0358773 C92.3105212,18.0766911 92.3707748,18.1175527 92.4302861,18.1583551 L92.606168,18.2804782 C93.6429968,19.0108705 94.3015796,19.6875 92.1023827,19.6875 C91.9562462,19.6875 91.8250155,19.693343 91.7099631,19.7048528 C91.4478073,19.6933238 91.1842313,19.6875 90.9193508,19.6875 C80.8913004,19.6875 79.1111176,24.7751366 72.7329923,33.9969404 C72.4012108,34.4762812 72.2676108,35.0603674 71.6934431,35.0603674 C71.1191111,35.0603674 70.9907697,34.4725823 70.6537296,33.9969404 C64.4673769,25.2610345 62.4954215,19.6875 52.4672067,19.6875 C42.4391562,19.6875 34.2805195,28.0346876 34.2805195,38.2946988 L34.2805195,38.2946988 L34.2805195,91.2005715 C33.76929,91.3095202 33.2646338,91.43007 32.769673,91.5667603 C28.9200106,92.6319338 25.5914881,94.5372358 23.2623624,97.0199116 L23.2748466,97.0077953 C22.489573,97.8570769 21.7734164,97.5242483 21.164812,96.8830814 C20.8190379,96.4354908 20.481344,95.9817409 20.150684,95.5225875 C20.0671081,95.3956849 19.9875791,95.2786375 19.912725,95.1751647 C19.8931441,95.1480975 19.8737514,95.1245091 19.8545468,95.1043993 C13.6463609,86.3126268 10,75.58214 10,64 C10,34.1766235 34.1766235,10 64,10 Z M117.130756,54.2976649 L116.829016,54.3166231 C115.036307,54.468487 113.114733,55.1824639 111.184972,56.3479067 L111.184972,56.3479067 L111.184017,90.2816066 C110.949975,90.7008884 110.710507,91.1167284 110.465708,91.5290315 C110.017888,91.4072361 109.566078,91.2950603 109.105874,91.1975451 L109.105874,91.1975451 L109.105874,38.2946988 C109.105874,36.5743535 108.8765,34.9077871 108.447398,33.3253318 C112.720099,39.5041482 115.737497,46.6180344 117.130756,54.2976649 Z M25.8472879,54.2862874 C25.0302411,54.2862874 24.2582205,54.4179338 23.5524248,54.6775276 C17.6843786,56.8364947 17.1637823,67.5486094 22.4155925,78.0687189 C24.8005082,82.845818 28.0246553,86.936103 31.4119817,89.7613722 C31.6729371,89.6927749 31.9361932,89.6272039 32.2014212,89.5649955 L32.2014212,89.5649955 L32.2014212,56.3447122 L31.8155897,56.1177095 C29.7588104,54.939654 27.7208775,54.2862874 25.8472879,54.2862874 Z M100.377682,54.6875 C100.894004,54.6875 101.3125,55.1178101 101.3125,55.6487081 C101.3125,56.1796062 100.894004,56.6099163 100.377682,56.6099163 C98.5486838,56.6099163 96.210752,58.5952381 93.5029421,60.8940237 C91.9750285,62.1912981 90.6502688,63.6155101 89.381424,65.0473756 L89.381424,65.0473756 L88.9356783,65.5528634 C88.4992987,66.0497142 88.0675649,66.545797 87.6343272,67.0361296 L87.2003604,67.524361 C83.5035094,71.6548986 79.5498927,75.25 71.5627955,75.25 C61.2913236,75.25 54.5469204,65.0752639 49.6223534,60.8940237 C46.9145435,58.5952381 44.5766118,56.6099163 42.747318,56.6099163 C42.2311436,56.6099163 41.8125,56.1796062 41.8125,55.6487081 C41.8125,55.1178101 42.2311436,54.6875 42.747318,54.6875 C45.24854,54.6875 47.7040997,56.7723462 50.8128204,59.4117939 C55.7803896,63.629653 61.9635473,68.8790711 71.5627955,68.8790711 C81.1620438,68.8790711 87.3446104,63.629653 92.3124752,59.4117939 C95.421048,56.7723462 97.8769034,54.6875 100.377682,54.6875 Z M52.4672067,27.7465115 C58.1520254,27.7465115 62.7769181,32.4783834 62.7769181,38.2946988 C62.7769181,44.1110141 58.1520254,48.8427179 52.4672067,48.8427179 C46.782388,48.8427179 42.1574953,44.1110141 42.1574953,38.2946988 C42.1574953,32.4783834 46.782388,27.7465115 52.4672067,27.7465115 Z M90.9193508,27.7465115 C96.6041696,27.7465115 101.228898,32.4783834 101.228898,38.2946988 C101.228898,44.1110141 96.6041696,48.8427179 90.9193508,48.8427179 C85.2345321,48.8427179 80.6098037,44.1110141 80.6098037,38.2946988 C80.6098037,32.4783834 85.2345321,27.7465115 90.9193508,27.7465115 Z M52.4672067,30.2946147 C48.0561625,30.2946147 44.4672067,33.8834094 44.4672067,38.2945109 C44.4672067,42.7056123 48.0561625,46.2946147 52.4672067,46.2946147 C56.8784585,46.2946147 60.4672067,42.7056123 60.4672067,38.2945109 C60.4672067,33.8834094 56.8784585,30.2946147 52.4672067,30.2946147 Z M90.9193725,30.2946147 C86.5083642,30.2946147 82.9192687,33.8834094 82.9192687,38.2945109 C82.9192687,42.7056123 86.5083642,46.2946147 90.9193725,46.2946147 C95.3305884,46.2946147 98.9192687,42.7056123 98.9192687,38.2945109 C98.9192687,33.8834094 95.3305884,30.2946147 90.9193725,30.2946147 Z M52.467306,35.2946147 C54.1238816,35.2946147 55.4672067,36.6379398 55.4672067,38.2945154 C55.4672067,39.9512896 54.1238816,41.2946147 52.467306,41.2946147 C50.8105318,41.2946147 49.4672067,39.9512896 49.4672067,38.2945154 C49.4672067,36.6379398 50.8105318,35.2946147 52.467306,35.2946147 Z M90.9192687,35.2946147 C92.5757896,35.2946147 93.9192687,36.6379398 93.9192687,38.2945154 C93.9192687,39.9512896 92.5757896,41.2946147 90.9192687,41.2946147 C89.2625493,41.2946147 87.9192687,39.9512896 87.9192687,38.2945154 C87.9192687,36.6379398 89.2625493,35.2946147 90.9192687,35.2946147 Z"/>
</svg>
